<?xml version="1.0" standalone="no"?>
<!DOCTYPE svg PUBLIC "-//W3C//DTD SVG 20010904//EN"
 "http://www.w3.org/TR/2001/REC-SVG-20010904/DTD/svg10.dtd">
<svg version="1.0" xmlns="http://www.w3.org/2000/svg"
 width="406.000000pt" height="406.000000pt" viewBox="0 0 406.000000 406.000000"
 preserveAspectRatio="xMidYMid meet">
<metadata>
Created by potrace 1.11, written by Peter Selinger 2001-2013
</metadata>
<g transform="translate(0.000000,406.000000) scale(0.100000,-0.100000)"
fill="#000000" stroke="none">
<path d="M2158 3353 c-84 -97 -150 -346 -143 -538 5 -123 9 -154 36 -241 65
-214 208 -398 323 -417 52 -8 88 5 180 67 78 53 195 116 214 116 5 0 17 -29
26 -64 28 -103 21 -210 -14 -221 -35 -11 -135 -95 -188 -157 -124 -147 -164
-325 -118 -533 20 -94 31 -127 60 -189 43 -91 97 -153 159 -181 41 -20 64 -23
141 -21 91 2 123 12 162 50 19 19 33 74 27 108 -7 48 -19 66 -85 133 -122 123
-154 219 -152 450 1 117 41 310 66 327 24 15 169 69 226 83 65 17 202 41 280
50 59 6 83 18 101 48 20 31 21 54 6 105 -48 159 -300 204 -597 107 -40 -13
-73 -23 -74 -22 -1 1 -25 33 -53 71 -93 126 -91 195 10 332 21 28 45 68 53 89
33 78 12 172 -45 203 -17 9 -55 32 -83 51 -125 81 -199 98 -351 76 l-50 -7
-40 68 c-22 37 -45 69 -51 71 -6 2 -17 -4 -26 -14z m62 -124 c37 -64 34 -62
110 -42 14 3 59 6 101 6 82 -1 144 -22 203 -67 17 -13 50 -33 73 -45 53 -27
66 -51 61 -111 -4 -36 -16 -63 -47 -107 -68 -96 -94 -157 -94 -227 0 -68 13
-101 75 -182 21 -28 38 -55 38 -60 0 -5 -28 -22 -62 -39 -33 -16 -97 -54 -141
-83 -103 -68 -120 -75 -167 -62 -106 29 -245 239 -290 440 -29 131 -18 338 25
479 19 62 64 161 74 161 3 0 22 -27 41 -61z m1075 -807 c87 -25 155 -119 123
-171 -12 -19 -27 -24 -128 -36 -141 -18 -321 -64 -392 -101 -15 -8 -29 -14
-33 -14 -3 0 -5 29 -5 64 0 36 -9 92 -20 128 -11 34 -20 66 -20 70 0 10 122
47 205 62 81 15 212 14 270 -2z m-526 -467 c-41 -147 -44 -353 -9 -482 29
-104 62 -162 133 -231 68 -65 90 -107 80 -152 -9 -47 -43 -64 -137 -67 -59 -2
-90 2 -120 16 -81 35 -142 132 -183 290 -51 200 -32 355 62 493 41 59 155 168
177 168 3 0 2 -16 -3 -35z"/>
<path d="M2481 3056 c-21 -26 -10 -69 22 -80 23 -8 31 -6 49 12 18 18 20 26
12 49 -7 21 -17 29 -40 31 -18 2 -36 -3 -43 -12z"/>
<path d="M1862 1891 c-30 -11 -75 -32 -100 -47 -68 -39 -199 -175 -263 -274
-48 -72 -143 -255 -162 -312 -6 -16 -26 -18 -222 -18 -216 0 -216 0 -240 25
-50 49 -18 128 57 139 81 12 128 60 128 130 0 111 -100 160 -235 114 -122 -41
-201 -127 -230 -253 -37 -159 56 -335 210 -395 l60 -23 708 -1 709 -1 23 27
c17 20 22 36 19 55 -7 41 -63 120 -132 188 l-60 59 46 51 c26 28 60 78 77 111
25 51 29 70 30 144 0 69 -4 94 -23 131 -29 59 -82 113 -141 141 -65 32 -186
36 -259 9z m249 -57 c19 -9 46 -31 62 -47 50 -54 62 -86 62 -172 0 -96 -22
-148 -97 -230 l-50 -55 -41 24 c-70 40 -138 59 -228 62 -73 3 -92 0 -130 -19
-111 -56 -114 -173 -7 -229 92 -48 258 -15 368 72 l38 30 35 -28 c41 -33 114
-117 140 -160 35 -61 61 -59 -704 -57 l-694 1 -50 22 c-158 72 -225 259 -146
408 26 50 47 74 93 108 45 33 140 60 184 52 50 -10 78 -68 58 -120 -8 -21 -37
-37 -78 -43 -49 -7 -78 -25 -103 -62 -40 -59 -22 -144 39 -181 31 -18 50 -20
266 -20 l233 0 15 38 c148 361 361 601 560 630 60 9 130 -1 175 -24z m-151
-493 c85 -33 90 -37 60 -63 -104 -88 -295 -110 -351 -40 -34 44 -19 83 46 121
31 18 180 7 245 -18z"/>
</g>
</svg>
